<svg width="46" height="55" viewBox="0 0 46 55" xmlns="http://www.w3.org/2000/svg" xmlns:xlink="http://www.w3.org/1999/xlink"><defs><linearGradient x1="50%" y1="0%" x2="50%" y2="100%" id="b"><stop stop-color="#FFF" stop-opacity=".302" offset="0%"/><stop stop-color="#FFF" stop-opacity="0" offset="100%"/></linearGradient><path d="M4.703 5.745l18-2.7a2 2 0 01.594 0l18 2.7A2 2 0 0143 7.722v24.351a14 14 0 01-6.797 12.005l-11.145 6.687a4 4 0 01-4.116 0L9.797 44.078A14 14 0 013 32.073V7.723a2 2 0 011.703-1.978z" id="a"/></defs><g fill="none"><path d="M22.555.033l-20 3A3 3 0 000 6v26.073a17 17 0 008.254 14.578l11.145 6.687a7 7 0 007.202 0l11.145-6.687A17 17 0 0046 32.073V6a3 3 0 00-2.555-2.967l-20-3a3 3 0 00-.89 0z" fill-opacity=".166" fill="#4B4E54"/><use fill="#F5576A" xlink:href="#a"/><use fill="url(#b)" style="mix-blend-mode:overlay" xlink:href="#a"/><path d="M14.415 39c2.77 0 4.45-1.6 4.45-3.93 0-2.46-1.69-3.9-4.42-3.9h-2.4V39h2.37zm.05-1.53h-.8V32.7h.82c1.54 0 2.72.83 2.72 2.37s-1.12 2.4-2.74 2.4zm6.5 1.53l.62-1.68h3.36l.63 1.68h1.67l-3-7.83h-1.95L19.305 39h1.66zm3.43-3.18h-2.28l1.14-3.08 1.14 3.08zm7.47 3.18v-3.17l2.87-4.66h-1.85l-1.83 3.13-1.81-3.13h-1.87l2.87 4.73V39h1.62zM15.604 27c3.197 0 5.547-1.973 5.547-4.392 0-1.563-.655-2.624-2.35-3.313 1.195-.614 2.061-1.582 2.061-3.089 0-2.568-2.099-4.206-5.18-4.206-2.312 0-4.835 1.005-5.528 3.815l2.947.707c.443-1.34 1.463-1.768 2.465-1.768 1.444 0 2.157.689 2.157 1.62 0 .874-.732 1.674-2.157 1.674h-1.483v2.81h1.656c1.637 0 2.254.633 2.254 1.694 0 .893-.925 1.675-2.254 1.675-1.502 0-2.446-.837-2.754-2.196L10 22.738C10.443 25.493 12.831 27 15.604 27zm13.906 0c4.352 0 6.49-3.703 6.49-7.556 0-3.852-2.138-7.425-6.433-7.425-4.41 0-6.49 3.647-6.49 7.5 0 3.833 2.022 7.481 6.433 7.481zm.019-2.903c-2.388 0-3.313-2.68-3.313-4.616 0-1.916.925-4.578 3.313-4.578s3.312 2.662 3.312 4.578c0 1.936-.924 4.616-3.312 4.616z" fill="#FFF"/></g></svg>